<svg width="1040" height="500" viewBox="0 0 1040 500" fill="none" xmlns="http://www.w3.org/2000/svg">
<path d="M1040 0H0V500H1040V0Z" fill="white"/>
<path d="M362.935 416.102C362.935 416.102 443.409 444.773 479.066 457.369C530.324 475.476 673.217 475.476 692.609 448.488C712.002 421.5 627.286 398.83 627.286 398.83L368.038 394.512L362.935 416.102Z" fill="#B29A9E"/>
<path d="M368.166 339.09L407.041 338.253L456.348 336.08L606.639 353.631L607.903 358.979L475.312 387.729L368.166 339.09Z" fill="#56494B"/>
<path d="M577.877 362.658C577.877 362.658 553.664 371.302 535.06 377.888C534.881 377.954 534.705 378.016 534.526 378.078C523.316 382.048 514.267 385.224 514.029 385.224C513.737 385.224 490.095 377.43 464.714 369.036C464.28 368.895 463.842 368.749 463.409 368.603C441.552 361.374 418.681 353.791 408.514 350.417C408.168 350.303 407.838 350.197 407.525 350.091C404.698 349.151 403.088 348.617 403.088 348.617C403.088 348.617 401.508 335.746 403.881 330.731C404.669 329.06 408.168 327.317 412.785 325.884C412.789 325.884 412.789 325.884 412.789 325.884C413.327 325.716 413.881 325.553 414.445 325.394C414.445 325.394 414.445 325.394 414.449 325.394C423.608 322.832 436.052 321.525 441.019 324.044C448.921 328.058 455.244 363.323 455.244 363.323L457.93 364.328C457.93 364.328 451.607 337.418 454.293 329.394C455.228 326.602 458.739 324.745 462.921 323.506C463.38 323.369 463.848 323.241 464.322 323.122C471.933 321.163 480.999 321.035 480.999 321.035C480.999 321.035 496.33 323.708 501.547 329.561C506.76 335.41 515.927 365.329 515.927 365.329L526.516 364.993C526.516 364.993 515.451 326.385 526.516 322.203C528.68 321.383 531.128 320.849 533.68 320.527C534.151 320.465 534.627 320.413 535.103 320.368C545.249 319.389 556.571 321.471 558.757 322.37C561.6 323.542 577.877 362.658 577.877 362.658Z" fill="#CCBCBE"/>
<path d="M414.445 325.394C412.755 326.678 411.154 328.102 409.878 329.827C408.102 332.226 407.213 335.049 407.134 338.089C407.042 341.436 407.702 344.771 408.177 348.066C408.29 348.852 408.402 349.632 408.515 350.417C408.169 350.303 407.84 350.197 407.527 350.091C407.327 348.697 407.126 347.303 406.93 345.909C406.476 342.671 406 339.337 406.472 336.069C407.089 331.812 409.583 328.354 412.785 325.884C412.79 325.884 412.79 325.884 412.79 325.884C413.327 325.717 413.881 325.553 414.445 325.394Z" fill="#B29A9E"/>
<path d="M464.715 369.036C464.281 368.895 463.843 368.749 463.409 368.603C463.005 367.042 462.629 365.476 462.275 363.906C461.254 359.406 460.415 354.859 459.769 350.285C459.131 345.803 458.526 341.243 458.71 336.704C458.868 332.703 459.686 328.689 461.717 325.262C462.08 324.645 462.484 324.058 462.922 323.507C463.381 323.37 463.848 323.243 464.323 323.123C463.243 324.376 462.355 325.827 461.666 327.332C459.961 331.077 459.607 335.337 459.786 339.444C459.978 343.855 460.57 348.253 461.262 352.606C461.963 356.995 462.83 361.353 463.865 365.666C464.134 366.791 464.418 367.915 464.715 369.036Z" fill="#B29A9E"/>
<path d="M533.609 369.622C534.11 372.336 534.697 375.017 535.065 377.752C535.073 377.801 535.069 377.845 535.06 377.889C535.014 378.154 534.702 378.25 534.526 378.079C534.484 378.034 534.451 377.982 534.43 377.911C533.492 374.845 532.799 371.7 532.132 368.56C531.477 365.485 530.898 362.397 530.38 359.297C529.442 353.691 528.742 348.036 528.507 342.35C528.395 339.594 528.379 336.823 528.57 334.075C528.745 331.539 529.146 329.003 530.05 326.638C530.914 324.384 532.156 322.32 533.679 320.529C534.15 320.467 534.626 320.415 535.101 320.371C532.849 322.792 531.164 325.782 530.364 329.082C529.734 331.68 529.601 334.371 529.596 337.039C529.592 339.783 529.688 342.526 529.892 345.261C530.293 350.721 531.073 356.142 532.044 361.519C532.533 364.228 533.109 366.918 533.609 369.622Z" fill="#B29A9E"/>
<path d="M563.286 380.969C553.652 380.969 545.814 373.079 545.814 363.381C545.814 353.683 553.652 345.793 563.286 345.793C572.92 345.793 580.757 353.683 580.757 363.381C580.757 373.079 572.919 380.969 563.286 380.969ZM563.286 349.322C555.492 349.322 549.15 355.629 549.15 363.381C549.15 371.134 555.492 377.44 563.286 377.44C571.079 377.44 577.421 371.134 577.421 363.381C577.421 355.629 571.079 349.322 563.286 349.322Z" fill="#56494B"/>
<path d="M617.228 356.695C617.228 356.695 621.653 342.654 630.292 339.311C638.931 335.968 643.356 343.769 641.038 348.895C638.72 354.021 627.342 353.129 626.077 354.021C624.813 354.912 623.759 359.593 623.759 359.593C623.759 359.593 618.913 360.261 617.228 356.695Z" fill="#E07E27"/>
<path d="M367.284 417.126C367.284 417.126 381.343 419.049 385.289 411.939L376.383 407.508C376.383 407.508 370.265 416.953 367.284 417.126Z" fill="#3F2E31"/>
<path d="M692.858 389.586C687.762 383.248 680.848 377.267 672.486 372.339C658.712 364.232 641.008 359.006 621.019 359.817C621.019 359.817 572.347 323.709 557.805 318.363C543.267 313.013 467.408 317.692 462.983 323.043C458.559 328.389 472.466 360.482 469.306 362.49C466.144 364.496 377.015 340.426 368.165 339.09C359.311 337.753 354.257 359.146 352.994 373.186C351.73 387.226 359.946 401.936 359.946 401.936L373.853 407.953L489.535 448.07C489.535 448.07 542.632 465.453 613.433 458.766C684.233 452.084 699.405 440.717 702.566 416.647C703.668 408.257 700.086 398.567 692.858 389.586ZM479.223 362.538C477.922 361.837 474.865 350.334 472.659 339.615L472.651 339.593C472.042 337.07 471.062 330.207 473.802 328.759C475.408 327.908 492.147 325.866 512.153 324.397C524.226 323.515 534.284 323.069 541.562 323.069C547.943 323.069 552.188 323.409 553.777 324.102C561.067 327.264 594.108 350.633 599.547 355.224C594.063 356.155 566.96 358.793 541.116 360.716C513.979 362.733 481.333 363.35 479.223 362.538Z" fill="#FDBE57"/>
<path d="M496.316 419.529C496.916 440.097 489.194 457.038 479.066 457.369C468.939 457.699 460.242 441.295 459.641 420.727C459.04 400.16 466.763 383.218 476.891 382.887C487.019 382.557 495.715 398.962 496.316 419.529Z" fill="#56494B"/>
<path d="M488.377 419.789C488.717 431.451 484.338 441.057 478.596 441.244C472.853 441.432 467.922 432.13 467.582 420.467C467.241 408.805 471.62 399.199 477.363 399.011C483.105 398.824 488.036 408.126 488.377 419.789Z" fill="#F9F4F4"/>
<path d="M483.733 419.94C483.959 427.688 481.567 434.052 478.388 434.156C475.211 434.26 472.451 428.064 472.225 420.316C471.999 412.569 474.391 406.204 477.569 406.1C480.747 405.997 483.506 412.193 483.733 419.94Z" fill="black"/>
<path d="M379.449 388.546C380.547 403.751 375.101 416.546 367.284 417.126C359.467 417.705 352.239 405.85 351.141 390.645C350.042 375.44 355.489 362.644 363.306 362.064C371.122 361.485 378.35 373.341 379.449 388.546Z" fill="#56494B"/>
<path d="M373.32 389C373.943 397.622 370.855 404.877 366.423 405.206C361.99 405.535 357.892 398.812 357.269 390.19C356.646 381.569 359.734 374.314 364.166 373.985C368.6 373.656 372.698 380.378 373.32 389Z" fill="#F9F4F4"/>
<path d="M369.736 389.266C370.15 394.993 368.497 399.783 366.044 399.965C363.59 400.147 361.267 395.652 360.853 389.924C360.439 384.197 362.092 379.406 364.545 379.225C366.998 379.043 369.322 383.538 369.736 389.266Z" fill="black"/>
<path d="M601.39 355.362C601.306 355.067 601.202 354.7 594.843 349.998C590.96 347.123 585.792 343.426 580.671 339.849C575.784 336.435 559.436 325.125 554.252 322.876C546.003 319.299 477.413 325.372 473.242 327.578C469.08 329.779 471.303 339.351 471.436 339.911C471.495 340.193 472.642 345.729 474.047 351.295C477.029 363.103 478.218 363.562 478.785 363.778C479.54 364.069 482.988 364.211 488.163 364.211C500.47 364.211 522.515 363.426 541.202 362.036C553.93 361.088 568.801 359.817 580.987 358.635C600.831 356.712 601.076 356.323 601.31 355.949L601.477 355.658L601.39 355.362ZM541.115 360.717C513.979 362.733 481.333 363.35 479.223 362.538C477.922 361.837 474.865 350.334 472.659 339.615L472.651 339.593C472.042 337.07 471.063 330.207 473.802 328.759C475.408 327.908 492.147 325.866 512.153 324.397C524.226 323.515 534.285 323.069 541.562 323.069C547.943 323.069 552.188 323.409 553.777 324.102C561.067 327.264 594.109 350.633 599.547 355.224C594.063 356.156 566.959 358.793 541.115 360.717Z" fill="#E07E27"/>
<path d="M421.993 352.976C421.125 353.554 420.59 354.447 420.023 355.335C419.464 356.213 418.946 357.117 418.463 358.044C417.457 359.975 416.584 361.98 415.775 364.01C414.158 368.065 412.86 372.256 411.816 376.514C409.734 385.012 408.699 393.765 408.025 402.502C407.833 405.002 407.671 407.505 407.525 410.009C407.453 411.241 407.384 412.475 407.321 413.708C407.259 414.931 407.109 416.22 407.411 417.412C407.514 417.819 408.014 417.801 408.148 417.432C408.515 416.42 408.513 415.32 408.581 414.245C408.65 413.147 408.7 412.046 408.761 410.946C408.883 408.777 409.015 406.607 409.168 404.44C409.476 400.076 409.866 395.717 410.417 391.379C411.505 382.812 413.227 374.278 416.162 366.193C416.988 363.92 417.899 361.677 418.951 359.511C419.464 358.452 420.016 357.412 420.607 356.398C421.206 355.369 421.974 354.429 422.354 353.284C422.425 353.072 422.175 352.855 421.993 352.976Z" fill="#E07E27"/>
<path d="M631.474 402.03C620.284 402.03 604.606 397.78 584.58 389.298C561.011 379.315 539.854 366.87 539.644 366.745C539.342 366.567 539.234 366.164 539.402 365.845C539.57 365.525 539.952 365.412 540.253 365.59C541.092 366.085 624.372 414.895 645.754 396.576C648.262 394.426 649.363 391.981 649.118 389.1C648.038 376.381 620.993 360.554 620.719 360.396C620.416 360.22 620.305 359.818 620.471 359.498C620.637 359.177 621.017 359.06 621.321 359.235C622.459 359.895 649.224 375.563 650.364 388.98C650.645 392.288 649.358 395.19 646.541 397.603C643.097 400.556 638.063 402.03 631.474 402.03Z" fill="#E07E27"/>
<path d="M684.122 443.205C683.847 440.52 683.52 437.842 683.209 435.162C682.939 432.833 682.805 430.412 682.177 428.151C681.621 426.154 680.586 424.348 678.87 423.253C677.275 422.236 675.361 421.939 673.526 421.947C671.448 421.956 669.39 422.339 667.341 422.659C664.81 423.054 662.278 423.434 659.745 423.801C654.716 424.529 649.68 425.202 644.639 425.819C634.458 427.065 624.253 428.083 614.031 428.875C609.197 429.249 604.307 429.375 599.505 430.113C594.9 430.821 590.632 432.439 586.807 435.272C583.033 438.068 579.749 441.544 576.48 444.957C572.891 448.702 569.314 452.486 565.911 456.422C565.093 457.367 564.333 458.342 563.594 459.356C563.302 459.757 563.89 460.168 564.217 459.878C566.125 458.184 567.836 456.289 569.573 454.404C571.281 452.552 572.99 450.703 574.713 448.867C577.966 445.404 581.222 441.881 584.769 438.75C588.211 435.711 592.007 433.344 596.394 432.222C600.95 431.056 605.687 430.945 610.343 430.611C620.256 429.898 630.155 428.972 640.032 427.836C649.91 426.701 659.757 425.324 669.586 423.796C672.917 423.278 677.463 422.743 679.729 426.046C680.904 427.758 681.193 429.978 681.436 432.022C681.74 434.584 682.024 437.15 682.318 439.713C682.464 440.991 682.614 442.267 682.778 443.543C682.898 444.482 684.215 444.119 684.122 443.205Z" fill="#E07E27"/>
<path d="M683.488 398.986C682.032 399.981 680.645 401.082 679.191 402.08C677.764 403.06 676.288 403.968 674.795 404.831C671.744 406.594 668.576 408.143 665.333 409.469C658.809 412.139 651.974 413.925 645.065 415.044C637.274 416.306 629.382 416.72 621.507 416.694C613.788 416.668 606.044 416.323 598.353 415.635C590.792 414.959 583.236 413.782 575.953 411.479C575.059 411.196 574.158 410.936 573.264 410.657C572.66 410.469 572.435 411.391 572.996 411.63C576.551 413.148 580.301 414.135 584.055 414.931C587.775 415.72 591.539 416.267 595.311 416.675C603.096 417.515 610.953 417.88 618.775 417.999C626.689 418.119 634.621 417.832 642.476 416.761C649.615 415.789 656.683 414.144 663.472 411.594C670.057 409.121 676.319 405.809 682.006 401.501C682.719 400.96 683.391 400.402 684.04 399.777C684.425 399.408 683.938 398.678 683.488 398.986Z" fill="#E07E27"/>
<path d="M511.958 374.228C511.62 373.944 511.264 373.684 510.908 373.426C510.214 372.921 509.532 372.397 508.87 371.846C508.239 371.323 507.627 370.779 507.018 370.228C506.386 369.656 505.723 368.967 504.95 368.62C504.575 368.451 504.359 368.948 504.471 369.251C504.764 370.046 505.464 370.753 506.037 371.333C506.66 371.963 507.315 372.567 507.989 373.134C508.665 373.703 509.356 374.252 510.066 374.774C510.41 375.026 510.766 375.276 511.141 375.474C511.515 375.671 511.981 375.932 512.403 375.788C512.638 375.707 512.766 375.497 512.725 375.236C512.657 374.794 512.271 374.49 511.958 374.228Z" fill="#E07E27"/>
<path d="M443.6 361.375C443.6 361.375 457.929 371.627 460.036 369.399C462.143 367.17 448.025 348.895 437.7 347.112C427.375 345.329 418.525 349.786 421.475 357.363C424.425 364.941 439.807 359.815 443.6 361.375Z" fill="#E07E27"/>
<path d="M384.389 396.811L405.461 403.274C405.461 403.274 395.979 408.4 384.389 396.811Z" fill="white"/>
<path d="M417.26 405.503L454.346 415.086C454.346 415.086 430.536 421.326 417.26 405.503Z" fill="white"/>
<path d="M572.392 409.404C570.97 412.436 557.411 408.381 542.108 400.347C526.805 392.312 515.554 383.341 516.976 380.31C518.399 377.278 531.958 381.333 547.26 389.368C562.563 397.401 573.814 406.372 572.392 409.404Z" fill="white"/>
<path d="M672.487 372.339C673.029 372.828 673.517 373.398 674.034 373.91C674.606 374.478 675.148 375.079 675.665 375.705C676.716 376.975 677.65 378.352 678.459 379.807C680.066 382.691 681.249 385.833 682.017 389.079C682.38 390.631 682.568 392.215 682.885 393.776C683.152 395.064 683.586 396.432 684.59 397.288C685.741 398.266 687.289 398.188 688.506 397.384C689.895 396.471 690.821 394.989 691.529 393.468C692.105 392.228 692.543 390.927 692.86 389.586C687.763 383.248 680.848 377.267 672.487 372.339Z" fill="white"/>
<path d="M561.809 440.416C559.961 444.85 556.423 447.494 553.907 446.322C551.391 445.149 550.85 440.603 552.698 436.168C554.546 431.733 558.084 429.089 560.6 430.262C563.116 431.435 563.657 435.98 561.809 440.416Z" fill="#F53C4C"/>
<path d="M689.81 418.647C690.324 422.278 692.41 424.958 694.47 424.632C696.531 424.307 697.784 421.098 697.271 417.466C696.758 413.835 694.671 411.155 692.611 411.48C690.55 411.806 689.297 415.015 689.81 418.647Z" fill="#F53C4C"/>
<path d="M274.622 88.537C272.545 83.528 266.518 71.601 255.459 69.273C241.382 66.309 236.936 71.496 236.936 71.496C236.936 71.496 231.749 55.196 208.781 56.678C185.812 58.16 168.03 84.092 168.03 84.092C161.665 82.969 156.816 85.63 153.574 88.537H274.622Z" fill="#C7CBF2"/>
<path d="M819.992 113.02C818.431 109.255 813.9 100.29 805.587 98.5396C795.005 96.3116 791.663 100.211 791.663 100.211C791.663 100.211 787.764 87.9576 770.499 89.0716C753.234 90.1856 739.867 109.679 739.867 109.679C735.082 108.835 731.437 110.835 729 113.021L819.992 113.02Z" fill="#C7CBF2"/>
<path d="M729.183 50.433V66.421L744.33 58.848L729.183 50.433Z" fill="#FDBE57"/>
<path d="M78.7102 138.557H62.7222L70.2962 153.704L78.7102 138.557Z" fill="#F53C4C"/>
<path d="M972.268 340.915H956.28L963.853 356.062L972.268 340.915Z" fill="#F53C4C"/>
<path d="M182.147 287.988V272L167 279.573L182.147 287.988Z" fill="#6774C1"/>
<path d="M223.404 497.937H1.72607V332.854C2.38907 332.493 3.03407 332.115 3.71607 331.773C18.1731 324.725 35.7551 324.118 49.1701 333.82C60.6511 342.1 68.2301 356.518 65.3131 370.69C74.2941 369.269 83.5971 370.52 91.9711 374.082C100.004 377.473 107.261 382.816 112.623 389.751C118.004 396.724 121.206 404.984 122.021 413.757C123.328 427.701 118.592 442.007 109.326 452.39C117.965 448.79 127.174 446.612 136.533 445.873C158.626 444.111 180.774 450.761 197.997 464.724C205.974 471.185 212.813 479.086 218.138 487.858C220.107 491.097 221.87 494.47 223.404 497.937Z" fill="#E5D8DA"/>
<path d="M108.397 422.168C103.831 427.91 98.3183 432.93 92.8993 437.856C83.2553 446.571 73.1753 454.832 62.7173 462.563C57.4123 466.466 52.0123 470.236 46.5363 473.874C43.8273 475.674 41.0793 477.436 38.3323 479.16C36.4763 480.335 34.5243 481.566 32.4973 482.552C29.9763 487.648 27.4953 492.783 25.0883 497.936H21.0723C23.4403 492.82 25.8653 487.724 28.3473 482.646C28.3473 482.382 28.4233 482.116 28.6313 481.908C28.6883 481.87 28.7263 481.85 28.7633 481.813C35.9633 467.148 43.6743 452.749 51.8793 438.633C57.5823 428.819 63.5503 419.175 69.7453 409.664C72.8523 404.908 75.9983 400.191 79.2573 395.548C82.5163 390.868 85.8503 386.188 89.6023 381.888C90.4363 380.921 91.8953 382.21 91.2893 383.233C88.0683 388.727 84.3733 393.957 80.8493 399.262C77.3063 404.586 73.7823 409.911 70.3533 415.291C58.2263 434.314 47.0103 453.886 36.7413 473.969C36.1913 475.049 35.6803 476.149 35.1303 477.228C35.9833 476.698 36.8163 476.186 37.6323 475.675C40.7203 473.704 43.8093 471.676 46.8403 469.631C57.4883 462.431 67.7953 454.7 77.6853 446.496C82.6873 442.348 87.5943 438.065 92.3883 433.67C97.1813 429.273 101.804 424.67 106.844 420.559C107.98 419.63 109.287 421.051 108.397 422.168Z" fill="#B29A9E"/>
<path d="M45.229 347.878C43.258 353.505 40.7 358.886 38.237 364.286C35.793 369.667 33.4061 375.048 31.0761 380.485C22.7201 399.925 15.2171 419.762 8.60505 439.883C6.19905 447.196 3.90605 454.547 1.72705 461.956V449.982C6.35105 434.843 11.5421 419.857 17.2071 405.097C21.0151 395.187 25.0511 385.354 29.3141 375.615C31.4361 370.746 33.615 365.895 35.87 361.083C38.125 356.289 40.474 351.515 43.335 347.063C43.959 346.097 45.626 346.741 45.229 347.878Z" fill="#B29A9E"/>
<path d="M20.9539 354.801C19.3749 358.941 18.6689 363.441 17.8849 367.791C17.0829 372.235 16.4289 376.707 15.8509 381.186C15.2799 385.613 14.7949 390.052 14.3949 394.498C14.1949 396.721 14.0239 398.945 13.9029 401.174C13.7759 403.508 13.8979 405.774 13.9849 408.103C14.0319 409.345 15.7099 409.345 15.8789 408.155C16.2079 405.846 16.6049 403.585 16.8129 401.254C17.0039 399.106 17.1899 396.958 17.3869 394.81C17.7939 390.364 18.2869 385.926 18.8659 381.499C19.4449 377.073 20.1229 372.662 20.8149 368.253C21.5009 363.886 22.4909 359.497 22.6939 355.077C22.7429 354.017 21.2989 353.896 20.9539 354.801Z" fill="#B29A9E"/>
<path d="M166.242 463.018C162.85 465.121 159.194 466.713 155.556 468.36C152.051 469.933 148.527 471.525 145.041 473.173C136.249 477.323 127.61 481.813 119.122 486.55C125.754 485.376 132.385 484.125 138.997 482.836C143.468 481.964 147.959 481.093 152.43 480.146C154.552 479.692 156.674 479.218 158.815 478.839C161.012 478.459 163.267 477.986 165.504 478.062C166.243 478.1 166.508 479.123 165.845 479.464C163.874 480.544 161.639 481.113 159.479 481.681C157.243 482.287 154.97 482.761 152.696 483.234C148.281 484.144 143.867 484.996 139.452 485.773C131.229 487.194 122.968 488.217 114.669 489.089C112.452 490.358 110.235 491.628 108.037 492.935C105.309 494.564 102.58 496.231 99.8898 497.937H93.6938C104.437 490.889 115.521 484.333 126.889 478.347C133.084 475.068 139.337 471.962 145.684 469.006C152.069 466.032 158.643 462.716 165.54 461.219C166.64 460.971 167.152 462.43 166.242 463.018Z" fill="#B29A9E"/>
</svg>
